<svg width="24" height="24" viewBox="0 0 24 24" fill="none" xmlns="http://www.w3.org/2000/svg">
<g clip-path="url(#clip0_267_14311)">
<path d="M11.998 1.99805C14.715 1.99805 15.054 2.00805 16.12 2.05805C17.185 2.10805 17.91 2.27505 18.548 2.52305C19.208 2.77705 19.764 3.12105 20.32 3.67605C20.8285 4.17594 21.222 4.78064 21.473 5.44805C21.72 6.08505 21.888 6.81105 21.938 7.87605C21.985 8.94205 21.998 9.28105 21.998 11.998C21.998 14.715 21.988 15.054 21.938 16.12C21.888 17.185 21.72 17.91 21.473 18.548C21.2227 19.2158 20.8292 19.8207 20.32 20.32C19.82 20.8284 19.2154 21.2218 18.548 21.473C17.911 21.72 17.185 21.888 16.12 21.938C15.054 21.985 14.715 21.998 11.998 21.998C9.28105 21.998 8.94205 21.988 7.87605 21.938C6.81105 21.888 6.08605 21.72 5.44805 21.473C4.78037 21.2225 4.17557 20.829 3.67605 20.32C3.16745 19.8202 2.77398 19.2155 2.52305 18.548C2.27505 17.911 2.10805 17.185 2.05805 16.12C2.01105 15.054 1.99805 14.715 1.99805 11.998C1.99805 9.28105 2.00805 8.94205 2.05805 7.87605C2.10805 6.81005 2.27505 6.08605 2.52305 5.44805C2.77328 4.78023 3.16685 4.17537 3.67605 3.67605C4.17572 3.16728 4.78048 2.77378 5.44805 2.52305C6.08605 2.27505 6.81005 2.10805 7.87605 2.05805C8.94205 2.01105 9.28105 1.99805 11.998 1.99805ZM11.998 6.99805C10.672 6.99805 9.40019 7.52483 8.46251 8.46251C7.52483 9.40019 6.99805 10.672 6.99805 11.998C6.99805 13.3241 7.52483 14.5959 8.46251 15.5336C9.40019 16.4713 10.672 16.998 11.998 16.998C13.3241 16.998 14.5959 16.4713 15.5336 15.5336C16.4713 14.5959 16.998 13.3241 16.998 11.998C16.998 10.672 16.4713 9.40019 15.5336 8.46251C14.5959 7.52483 13.3241 6.99805 11.998 6.99805V6.99805ZM18.498 6.74805C18.498 6.41653 18.3664 6.09858 18.1319 5.86416C17.8975 5.62974 17.5796 5.49805 17.248 5.49805C16.9165 5.49805 16.5986 5.62974 16.3642 5.86416C16.1297 6.09858 15.998 6.41653 15.998 6.74805C15.998 7.07957 16.1297 7.39751 16.3642 7.63193C16.5986 7.86635 16.9165 7.99805 17.248 7.99805C17.5796 7.99805 17.8975 7.86635 18.1319 7.63193C18.3664 7.39751 18.498 7.07957 18.498 6.74805ZM11.998 8.99805C12.7937 8.99805 13.5568 9.31412 14.1194 9.87673C14.682 10.4393 14.998 11.2024 14.998 11.998C14.998 12.7937 14.682 13.5568 14.1194 14.1194C13.5568 14.682 12.7937 14.998 11.998 14.998C11.2024 14.998 10.4393 14.682 9.87673 14.1194C9.31412 13.5568 8.99805 12.7937 8.99805 11.998C8.99805 11.2024 9.31412 10.4393 9.87673 9.87673C10.4393 9.31412 11.2024 8.99805 11.998 8.99805V8.99805Z" fill="#1A1D26" fill-opacity="0.6"/>
</g>
<defs>
<clipPath id="clip0_267_14311">
<rect width="24" height="24" fill="white"/>
</clipPath>
</defs>
</svg>
