<svg width="24" height="24" viewBox="0 0 24 24" fill="none" xmlns="http://www.w3.org/2000/svg">
<g clip-path="url(#clip0_267_14308)">
<path d="M22.1643 5.65886C21.4008 5.99655 20.5912 6.21833 19.7623 6.31686C20.636 5.79429 21.29 4.97187 21.6023 4.00286C20.7823 4.49086 19.8833 4.83286 18.9463 5.01786C18.3169 4.34444 17.4826 3.89782 16.5732 3.74744C15.6638 3.59706 14.7302 3.75135 13.9175 4.18631C13.1048 4.62127 12.4586 5.31254 12.0794 6.15265C11.7001 6.99276 11.609 7.93464 11.8202 8.83186C10.1574 8.74851 8.53058 8.31638 7.04554 7.56352C5.56049 6.81066 4.25038 5.7539 3.20025 4.46186C2.82854 5.10031 2.63321 5.82608 2.63425 6.56486C2.63425 8.01486 3.37225 9.29586 4.49425 10.0459C3.83026 10.025 3.18088 9.84564 2.60025 9.52286V9.57486C2.60045 10.5406 2.93462 11.4765 3.5461 12.2239C4.15758 12.9714 5.00873 13.4843 5.95525 13.6759C5.33886 13.8429 4.69256 13.8675 4.06525 13.7479C4.33212 14.5791 4.85226 15.3061 5.55284 15.827C6.25343 16.3479 7.09938 16.6367 7.97225 16.6529C7.10473 17.3342 6.11143 17.8378 5.04913 18.135C3.98683 18.4322 2.87638 18.5171 1.78125 18.3849C3.69295 19.6143 5.91835 20.267 8.19125 20.2649C15.8842 20.2649 20.0913 13.8919 20.0913 8.36486C20.0913 8.18486 20.0863 8.00286 20.0783 7.82486C20.8971 7.23302 21.6038 6.49988 22.1653 5.65986L22.1643 5.65886Z" fill="#1A1D26" fill-opacity="0.6"/>
</g>
<defs>
<clipPath id="clip0_267_14308">
<rect width="24" height="24" fill="white"/>
</clipPath>
</defs>
</svg>
