<svg width="33" height="32" viewBox="0 0 33 32" fill="none" xmlns="http://www.w3.org/2000/svg">
<path d="M16.5 12V20ZM20.5 16H12.5ZM28.5 16C28.5 17.5759 28.1896 19.1363 27.5866 20.5922C26.9835 22.0481 26.0996 23.371 24.9853 24.4853C23.871 25.5996 22.5481 26.4835 21.0922 27.0866C19.6363 27.6896 18.0759 28 16.5 28C14.9241 28 13.3637 27.6896 11.9078 27.0866C10.4519 26.4835 9.12902 25.5996 8.01472 24.4853C6.90042 23.371 6.0165 22.0481 5.41345 20.5922C4.81039 19.1363 4.5 17.5759 4.5 16C4.5 12.8174 5.76428 9.76516 8.01472 7.51472C10.2652 5.26428 13.3174 4 16.5 4C19.6826 4 22.7348 5.26428 24.9853 7.51472C27.2357 9.76516 28.5 12.8174 28.5 16Z" fill="#009FD6" fill-opacity="0.12"/>
<path d="M16.5 12V20M20.5 16H12.5M28.5 16C28.5 17.5759 28.1896 19.1363 27.5866 20.5922C26.9835 22.0481 26.0996 23.371 24.9853 24.4853C23.871 25.5996 22.5481 26.4835 21.0922 27.0866C19.6363 27.6896 18.0759 28 16.5 28C14.9241 28 13.3637 27.6896 11.9078 27.0866C10.4519 26.4835 9.12902 25.5996 8.01472 24.4853C6.90042 23.371 6.0165 22.0481 5.41345 20.5922C4.81039 19.1363 4.5 17.5759 4.5 16C4.5 12.8174 5.76428 9.76516 8.01472 7.51472C10.2652 5.26428 13.3174 4 16.5 4C19.6826 4 22.7348 5.26428 24.9853 7.51472C27.2357 9.76516 28.5 12.8174 28.5 16Z" stroke="#009FD6" stroke-width="2" stroke-linecap="round" stroke-linejoin="round"/>
</svg>
